<svg width="65" height="40" viewBox="0 0 65 40" fill="none" xmlns="http://www.w3.org/2000/svg">
<path d="M4.10218 9.06216C3.0347 6.4163 1.83585 3.43923 0.485535 0.125168L11.3464 4.03618L19.7421 7.33292C19.8735 7.38106 20.1289 7.47542 20.4282 7.58903C20.0505 7.74116 19.6581 7.90291 19.2457 8.08007L18.1801 8.5326L18.1892 14.221L4.10218 9.06216Z" fill="white"/>
<path d="M8.90856 20.7952C7.8721 18.3843 6.70427 15.5228 5.18425 11.7504L18.1381 16.4586C18.1217 19.1045 18.1326 21.8678 18.3972 24.2768L8.90856 20.7952Z" fill="white"/>
<path d="M46.8578 24.221C47.1151 21.812 47.1151 19.0486 47.0895 16.4028L60.027 11.6445C58.5197 15.4245 57.3628 18.288 56.3337 20.7028L46.8578 24.221Z" fill="white"/>
<path d="M40.4785 36.2968C40.8306 36.0002 41.1573 35.7018 41.4657 35.3994C41.4803 35.3879 41.493 35.3744 41.5076 35.3609C44.2265 32.846 45.7702 30.1424 46.4965 26.6107L46.7611 26.5086L55.1385 23.4295C53.1094 27.9009 51.6423 30.1963 49.7993 31.8042C47.8596 33.4988 45.5549 34.373 41.7357 35.8211C41.3252 35.9771 40.9091 36.135 40.4766 36.2987L40.4785 36.2968Z" fill="white"/>
<path d="M24.8203 36.3276C24.3879 36.1639 23.97 36.0079 23.5613 35.8539C19.7384 34.4193 17.4301 33.5546 15.4831 31.8678C13.6346 30.2656 12.1584 27.9779 10.1147 23.5142L18.5067 26.5626L18.7695 26.6627C19.5085 30.1924 21.0614 32.8884 23.7894 35.3937C23.804 35.4071 23.8167 35.4206 23.8313 35.4322C24.1397 35.7345 24.4682 36.031 24.8203 36.3257V36.3276Z" fill="white"/>
<path d="M47.022 8.47676L45.9545 8.02808C45.5403 7.85284 45.1498 7.69109 44.7703 7.54089C45.0677 7.42535 45.3213 7.33099 45.4491 7.28478L53.8447 3.95146L64.6855 0C63.3462 3.32369 62.1564 6.30269 61.1017 8.95047L47.033 14.1652L47.0238 8.47676H47.022Z" fill="white"/>
<path d="M46.1461 15.6768C46.1279 14.2691 46.1096 12.8153 46.106 11.2208L46.0622 9.34138L44.7338 8.70399C39.9256 6.69745 36.1684 5.80202 32.55 5.80202C28.9333 5.8155 25.178 6.72441 20.3789 8.7502L19.1071 9.39337L19.1509 11.2728C19.1527 12.8653 19.1399 14.3211 19.1271 15.7269C19.0122 28.0607 18.9702 32.6765 31.4478 39.2334L32.5481 39.8978L33.6484 39.2681C46.1023 32.6631 46.3012 28.0087 46.1425 15.6768H46.1461ZM42.4711 26.6569C42.4674 26.6685 42.4638 26.6781 42.462 26.6897C42.3853 26.9496 42.3014 27.2038 42.2102 27.4542C42.1919 27.5042 42.1737 27.5524 42.1554 27.6024C42.1499 27.6178 42.1445 27.6332 42.139 27.6486C41.6938 28.8349 41.0825 29.9363 40.0716 31.0802C40.0186 31.1399 39.9621 31.2015 39.9073 31.2612C39.8325 31.344 39.7613 31.4249 39.6829 31.5057C39.6774 31.5115 39.6701 31.5192 39.6628 31.5269C39.6446 31.5462 39.6263 31.5635 39.6081 31.5828C39.5406 31.654 39.4694 31.7253 39.4055 31.7907C38.4494 32.7459 37.2724 33.6567 35.8254 34.5887C35.7962 34.608 35.767 34.6272 35.7378 34.6446C35.6575 34.6966 35.5754 34.7466 35.4933 34.7986C35.4258 34.841 35.3582 34.8833 35.2889 34.9257C35.2232 34.9662 35.1557 35.0085 35.0882 35.049C34.9969 35.1048 34.9039 35.1606 34.809 35.2184C34.7579 35.2492 34.7068 35.28 34.6557 35.3108C34.5262 35.3879 34.3948 35.4649 34.2616 35.5419C34.2433 35.5535 34.2232 35.5631 34.205 35.5747C33.7287 35.852 33.2269 36.1331 32.6941 36.422C32.6649 36.4374 32.6375 36.4547 32.6065 36.4682C32.5755 36.4508 32.5463 36.4354 32.5153 36.4181C32.5062 36.4142 32.4989 36.4085 32.4897 36.4046C32.3292 36.316 32.1704 36.2294 32.0135 36.1427C31.9149 36.0869 31.8164 36.033 31.7197 35.979C31.6212 35.9232 31.5244 35.8693 31.4277 35.8134C31.3055 35.7441 31.185 35.6748 31.0664 35.6055C30.9369 35.5304 30.8073 35.4553 30.6814 35.3802C30.6139 35.3397 30.5464 35.2993 30.4807 35.2608C30.3073 35.1568 30.1358 35.0528 29.9698 34.9507C29.9479 34.9373 29.9278 34.9238 29.9059 34.9103C29.7252 34.7986 29.5501 34.6869 29.3785 34.5772C29.3694 34.5714 29.3603 34.5656 29.3493 34.5598C27.2253 33.1888 25.7236 31.8889 24.647 30.4774C24.6397 30.4697 24.6342 30.4601 24.6269 30.4524C24.5375 30.333 24.4499 30.2136 24.366 30.0942C24.3277 30.0403 24.2912 29.9864 24.2547 29.9325C24.2255 29.8901 24.1981 29.8477 24.1707 29.8054C23.5102 28.8002 23.0503 27.7469 22.7255 26.5992C22.6909 26.4778 22.658 26.3546 22.6252 26.2314C22.6233 26.2217 22.6197 26.2121 22.6179 26.2025C22.6179 26.2025 22.5978 26.1254 22.5978 26.1235C22.5905 26.0927 22.5832 26.06 22.5759 26.0292C22.5522 25.929 22.5285 25.827 22.5066 25.7249C22.4901 25.6498 22.4737 25.5747 22.4573 25.4996C22.4336 25.3841 22.4098 25.2666 22.3879 25.1472C22.3734 25.0721 22.3606 24.9951 22.3478 24.9181C22.3332 24.8333 22.3186 24.7486 22.3058 24.6619C22.2931 24.5868 22.2821 24.5117 22.2693 24.4347C22.2493 24.2922 22.2292 24.1497 22.2109 24.0034C22.2018 23.9283 22.1927 23.8512 22.1836 23.7761C22.1708 23.6722 22.1599 23.5682 22.1489 23.4642C22.1416 23.3987 22.1343 23.3332 22.1288 23.2678C22.1124 23.0964 22.096 22.925 22.0832 22.7498C22.0814 22.7228 22.0796 22.6939 22.0777 22.667C22.0631 22.4821 22.0504 22.2953 22.0376 22.1047C22.0376 22.0989 22.0376 22.095 22.0376 22.0893C21.9153 20.1097 21.9281 17.8258 21.9573 15.0991V15.051C21.9701 13.9533 21.981 12.8249 21.9865 11.6214C22.4281 11.4442 22.8569 11.2786 23.2802 11.1226C23.3076 11.113 23.3332 11.1014 23.3605 11.0918C24.0558 10.8357 24.7254 10.6065 25.3769 10.4063C25.4043 10.3986 25.4316 10.3889 25.4572 10.3793C27.9023 9.59942 30.0975 9.23354 32.1741 9.18155C32.3219 9.17963 32.4678 9.1777 32.6138 9.1777C32.8018 9.1777 32.9915 9.17963 33.1813 9.18733C33.6849 9.20273 34.1959 9.2374 34.7159 9.29517C37.0425 9.55128 39.5624 10.1656 42.4912 11.3267C42.7375 11.4211 42.9875 11.5193 43.2393 11.6194C43.243 12.5688 43.2503 13.4719 43.2594 14.35C43.2649 14.7121 43.2685 15.0683 43.2722 15.4149C43.3251 20.1135 43.3269 23.5181 42.566 26.318C42.5368 26.4297 42.5058 26.5395 42.4747 26.6492C42.4747 26.6511 42.4747 26.655 42.4729 26.6569H42.4711Z" fill="white"/>
<path d="M25.6378 12.7902H27.0338V20.0981H25.6141C25.5137 20.0769 25.4645 20.023 25.4645 19.9402V12.9597C25.4645 12.875 25.5229 12.8172 25.6396 12.7883L25.6378 12.7902ZM27.2564 12.7902H28.1158C29.0373 12.7902 29.6687 12.9347 30.0099 13.2235C30.4752 13.547 30.707 14.0515 30.707 14.7352C30.707 15.4188 30.4624 15.8886 29.9716 16.2333C30.4059 16.4086 30.7051 16.6839 30.8694 17.0614C30.9861 17.3117 31.0445 17.5909 31.0445 17.9029V17.9414C31.0445 18.9312 30.592 19.5975 29.6869 19.9402C29.3694 20.0461 29.0501 20.0981 28.7271 20.0981H27.2564V18.6654H28.5264C29.1486 18.6654 29.4607 18.4016 29.4607 17.8759V17.797C29.4607 17.4985 29.3493 17.2886 29.1249 17.1653C28.9607 17.0691 28.6833 17.0209 28.291 17.0209H27.2564V15.6017H28.1286C28.6359 15.6017 28.9333 15.5093 29.0264 15.3263C29.0921 15.1992 29.1267 15.0587 29.1267 14.9046C29.1267 14.6331 29.0428 14.4482 28.8767 14.352C28.7399 14.2653 28.4862 14.221 28.1176 14.221H27.2582V12.7883L27.2564 12.7902Z" fill="white"/>
<path d="M34.6375 12.7902H35.871C35.9513 12.7902 36.006 12.8519 36.0334 12.9732V17.1807C36.0334 17.9356 36.2743 18.3958 36.756 18.5614C36.8746 18.5961 36.9914 18.6134 37.1045 18.6134H37.1301V20.0981C35.8637 20.0981 35.0371 19.5551 34.6521 18.469C34.5353 18.1243 34.4769 17.7315 34.4769 17.2867V12.9616C34.5043 12.848 34.5572 12.7902 34.6393 12.7902H34.6375ZM38.5114 12.7902H39.7449C39.8252 12.7902 39.88 12.8519 39.9073 12.9732V16.9824C39.9073 17.8855 39.7504 18.5557 39.4347 18.9947C39.1811 19.4203 38.7541 19.74 38.1519 19.9537C37.8362 20.0423 37.5698 20.0846 37.3545 20.0846V18.6C37.5753 18.6 37.7979 18.4863 38.0278 18.2591C38.2432 17.9895 38.3508 17.5736 38.3508 17.0094V12.9597C38.3782 12.8461 38.4311 12.7883 38.5132 12.7883L38.5114 12.7902Z" fill="white"/>
<path d="M36.548 28.157C36.6027 28.0723 36.6921 28.0222 36.7888 28.0222L39.4165 28.003C39.5132 28.0241 39.5624 28.0761 39.5624 28.157V29.2797C39.5369 29.3894 39.484 29.4453 39.4055 29.4453H35.8144C35.7725 29.4453 35.7487 29.3952 35.7706 29.3586L36.548 28.157ZM38.2961 22.3473C38.3088 22.3473 38.3161 22.3627 38.3088 22.3743L37.4275 23.7261C37.402 23.7665 37.3582 23.7896 37.3125 23.7896H35.0845C34.9805 23.7896 34.9276 23.7087 34.9276 23.547V22.615C34.9276 22.4359 34.9805 22.3473 35.0845 22.3473H38.2961ZM39.3782 23.5585C38.0917 25.4861 35.9805 28.7116 35.5717 29.3374C35.5279 29.4048 35.4568 29.4434 35.3783 29.4453L34.7999 29.4491C34.7068 29.4491 34.632 29.3702 34.632 29.2739L34.6283 28.3188C34.6283 28.2533 34.6466 28.1898 34.6831 28.1358L38.5004 22.4108C38.526 22.3723 38.5698 22.3473 38.6154 22.3492L39.2741 22.355C39.3508 22.355 39.4128 22.4224 39.411 22.5033L39.4037 23.4796C39.4037 23.5085 39.3946 23.5374 39.3782 23.5624V23.5585Z" fill="white"/>
<path d="M27.4626 28.157C27.5173 28.0723 27.6067 28.0222 27.7034 28.0222L30.3311 28.003C30.4278 28.0241 30.477 28.0761 30.477 28.157V29.2797C30.4515 29.3894 30.3986 29.4453 30.3201 29.4453H26.729C26.687 29.4453 26.6633 29.3952 26.6852 29.3586L27.4626 28.157ZM29.2107 22.3473C29.2234 22.3473 29.2307 22.3627 29.2234 22.3743L28.3421 23.7261C28.3165 23.7665 28.2728 23.7896 28.2271 23.7896H25.9991C25.8951 23.7896 25.8422 23.7087 25.8422 23.547V22.615C25.8422 22.4359 25.8951 22.3473 25.9991 22.3473H29.2107ZM30.2927 23.5585C29.0063 25.4861 26.8951 28.7116 26.4863 29.3374C26.4425 29.4048 26.3714 29.4434 26.2929 29.4453L25.7145 29.4491C25.6214 29.4491 25.5466 29.3702 25.5466 29.2739L25.5429 28.3188C25.5429 28.2533 25.5612 28.1898 25.5977 28.1358L29.415 22.4108C29.4406 22.3723 29.4844 22.3473 29.53 22.3492L30.1887 22.355C30.2654 22.355 30.3274 22.4224 30.3256 22.5033L30.3183 23.4796C30.3183 23.5085 30.3092 23.5374 30.2927 23.5624V23.5585Z" fill="white"/>
<path d="M25.6378 12.7902H27.0338V20.0981H25.6141C25.5137 20.0769 25.4645 20.023 25.4645 19.9402V12.9597C25.4645 12.875 25.5229 12.8172 25.6396 12.7883L25.6378 12.7902ZM27.2564 12.7902H28.1158C29.0373 12.7902 29.6687 12.9347 30.0099 13.2235C30.4752 13.547 30.707 14.0515 30.707 14.7352C30.707 15.4188 30.4624 15.8886 29.9716 16.2333C30.4059 16.4086 30.7051 16.6839 30.8694 17.0614C30.9861 17.3117 31.0445 17.5909 31.0445 17.9029V17.9414C31.0445 18.9312 30.592 19.5975 29.6869 19.9402C29.3694 20.0461 29.0501 20.0981 28.7271 20.0981H27.2564V18.6654H28.5264C29.1486 18.6654 29.4607 18.4016 29.4607 17.8759V17.797C29.4607 17.4985 29.3493 17.2886 29.1249 17.1653C28.9607 17.0691 28.6833 17.0209 28.291 17.0209H27.2564V15.6017H28.1286C28.6359 15.6017 28.9333 15.5093 29.0264 15.3263C29.0921 15.1992 29.1267 15.0587 29.1267 14.9046C29.1267 14.6331 29.0428 14.4482 28.8767 14.352C28.7399 14.2653 28.4862 14.221 28.1176 14.221H27.2582V12.7883L27.2564 12.7902Z" fill="white"/>
<path d="M34.6375 12.7902H35.871C35.9513 12.7902 36.006 12.8519 36.0334 12.9732V17.1807C36.0334 17.9356 36.2743 18.3958 36.756 18.5614C36.8746 18.5961 36.9914 18.6134 37.1045 18.6134H37.1301V20.0981C35.8637 20.0981 35.0371 19.5551 34.6521 18.469C34.5353 18.1243 34.4769 17.7315 34.4769 17.2867V12.9616C34.5043 12.848 34.5572 12.7902 34.6393 12.7902H34.6375ZM38.5114 12.7902H39.7449C39.8252 12.7902 39.88 12.8519 39.9073 12.9732V16.9824C39.9073 17.8855 39.7504 18.5557 39.4347 18.9947C39.1811 19.4203 38.7541 19.74 38.1519 19.9537C37.8362 20.0423 37.5698 20.0846 37.3545 20.0846V18.6C37.5753 18.6 37.7979 18.4863 38.0278 18.2591C38.2432 17.9895 38.3508 17.5736 38.3508 17.0094V12.9597C38.3782 12.8461 38.4311 12.7883 38.5132 12.7883L38.5114 12.7902Z" fill="white"/>
<path d="M36.548 28.157C36.6027 28.0723 36.6921 28.0222 36.7888 28.0222L39.4165 28.003C39.5132 28.0241 39.5624 28.0761 39.5624 28.157V29.2797C39.5369 29.3894 39.484 29.4453 39.4055 29.4453H35.8144C35.7725 29.4453 35.7487 29.3952 35.7706 29.3586L36.548 28.157ZM38.2961 22.3473C38.3088 22.3473 38.3161 22.3627 38.3088 22.3743L37.4275 23.7261C37.402 23.7665 37.3582 23.7896 37.3125 23.7896H35.0845C34.9805 23.7896 34.9276 23.7087 34.9276 23.547V22.615C34.9276 22.4359 34.9805 22.3473 35.0845 22.3473H38.2961ZM39.3782 23.5585C38.0917 25.4861 35.9805 28.7116 35.5717 29.3374C35.5279 29.4048 35.4568 29.4434 35.3783 29.4453L34.7999 29.4491C34.7068 29.4491 34.632 29.3702 34.632 29.2739L34.6283 28.3188C34.6283 28.2533 34.6466 28.1898 34.6831 28.1358L38.5004 22.4108C38.526 22.3723 38.5698 22.3473 38.6154 22.3492L39.2741 22.355C39.3508 22.355 39.4128 22.4224 39.411 22.5033L39.4037 23.4796C39.4037 23.5085 39.3946 23.5374 39.3782 23.5624V23.5585Z" fill="white"/>
<path d="M27.4626 28.157C27.5173 28.0723 27.6067 28.0222 27.7034 28.0222L30.3311 28.003C30.4278 28.0241 30.477 28.0761 30.477 28.157V29.2797C30.4515 29.3894 30.3986 29.4453 30.3201 29.4453H26.729C26.687 29.4453 26.6633 29.3952 26.6852 29.3586L27.4626 28.157ZM29.2107 22.3473C29.2234 22.3473 29.2307 22.3627 29.2234 22.3743L28.3421 23.7261C28.3165 23.7665 28.2728 23.7896 28.2271 23.7896H25.9991C25.8951 23.7896 25.8422 23.7087 25.8422 23.547V22.615C25.8422 22.4359 25.8951 22.3473 25.9991 22.3473H29.2107ZM30.2927 23.5585C29.0063 25.4861 26.8951 28.7116 26.4863 29.3374C26.4425 29.4048 26.3714 29.4434 26.2929 29.4453L25.7145 29.4491C25.6214 29.4491 25.5466 29.3702 25.5466 29.2739L25.5429 28.3188C25.5429 28.2533 25.5612 28.1898 25.5977 28.1358L29.415 22.4108C29.4406 22.3723 29.4844 22.3473 29.53 22.3492L30.1887 22.355C30.2654 22.355 30.3274 22.4224 30.3256 22.5033L30.3183 23.4796C30.3183 23.5085 30.3092 23.5374 30.2927 23.5624V23.5585Z" fill="white"/>
<path fill-rule="evenodd" clip-rule="evenodd" d="M32.3828 35.3571V10.0096H33.0164V35.3571H32.3828Z" fill="white"/>
<path fill-rule="evenodd" clip-rule="evenodd" d="M42.3707 21.611H22.8642V20.9423H42.3707V21.611Z" fill="white"/>
</svg>
