<svg width="50" height="50" viewBox="0 0 50 50" fill="none" xmlns="http://www.w3.org/2000/svg">
<path d="M44.5277 4.71931V47.5632H5.47226V4.71931H3V50H47V4.71931H44.5277ZM10.6358 0H8.16358V8.91425H10.6358V0ZM16.8947 0H14.4225V8.91425H16.8947V0ZM23.1536 0H20.6814V8.91425H23.1536V0ZM29.4125 0H26.9403V8.91425H29.4125V0ZM35.6714 0H33.1991V8.91425H35.6714V0ZM41.9303 0H39.458V8.91425H41.9303V0ZM18.7098 23.103V39.6977H21.1821V17.1808L14.0469 24.2134L15.7994 25.9408L18.6785 23.103H18.7098ZM34.138 39.6977V17.1808L27.0028 24.2134L28.7553 25.9408L31.6344 23.103V39.6977H34.1067H34.138Z" fill="#231F20"/>
</svg>
