<svg width="20" height="20" viewBox="0 0 20 20" fill="none" xmlns="http://www.w3.org/2000/svg">
<path d="M11.515 9.975L19.705 18.165C20.0317 18.4917 20.0317 18.7717 19.705 19.005L19.005 19.705C18.7717 20.0317 18.4917 20.0317 18.165 19.705L9.975 11.515L1.785 19.705C1.45833 20.0317 1.17833 20.0317 0.945 19.705L0.245 19.005C-0.0816667 18.7717 -0.0816667 18.4917 0.245 18.165L8.435 9.975L0.245 1.785C-0.0816667 1.45833 -0.0816667 1.17833 0.245 0.945L0.945 0.245C1.17833 -0.0816666 1.45833 -0.0816666 1.785 0.245L9.975 8.435L18.165 0.245C18.4917 -0.0816666 18.7717 -0.0816666 19.005 0.245L19.705 0.945C20.0317 1.17833 20.0317 1.45833 19.705 1.785L11.515 9.975Z" fill="white"/>
</svg>
