<svg width="50" height="50" viewBox="0 0 50 50" fill="none" xmlns="http://www.w3.org/2000/svg">
<path d="M24.9869 0C16.1576 0 9 7.21432 9 16.1137C9.05224 20.8004 12.84 28.6467 16.5755 35.6503C20.311 42.6014 24.0465 48.4992 24.0727 48.5255L24.9869 50L25.9273 48.5255C25.9273 48.5255 29.6629 42.6014 33.4245 35.6503C37.16 28.6467 40.9478 20.8004 41 16.1137C40.9739 7.21432 33.8163 0 24.9869 0ZM31.4653 34.5972C28.8792 39.3892 26.3192 43.6546 24.9869 45.8399C23.6547 43.6809 21.0947 39.3892 18.5086 34.5972C14.7992 27.7778 11.142 19.7209 11.1943 16.1137C11.1943 8.45182 17.3592 2.23802 24.9869 2.21169C32.5886 2.21169 38.7535 8.42549 38.7796 16.1137C38.8318 19.7209 35.1747 27.7778 31.4653 34.5972ZM24.9869 8.45182C20.7812 8.45182 17.3853 11.901 17.3853 16.1401C17.3853 20.3791 20.7812 23.802 24.9869 23.8283C29.1927 23.8283 32.5886 20.3791 32.6147 16.1401C32.6147 11.901 29.1927 8.45182 24.9869 8.45182ZM24.9869 21.5903C22.009 21.5903 19.5796 19.1417 19.5796 16.1401C19.5796 13.1385 22.009 10.6898 24.9869 10.6898C27.9649 10.6898 30.3943 13.1385 30.3943 16.1401C30.3943 19.1417 27.9649 21.5903 24.9869 21.5903Z" fill="#231F20"/>
</svg>
