<svg width="50" height="50" viewBox="0 0 50 50" fill="none" xmlns="http://www.w3.org/2000/svg">
<g clip-path="url(#clip0_0_4)">
<path d="M0 19.8906C0 8.88585 8.88585 0 19.8906 0C30.8612 0 39.7813 8.88585 39.7813 19.8906C39.7813 30.8612 30.8612 39.7813 19.8906 39.7813C8.88585 39.7471 0 30.8612 0 19.8906ZM2.66576 19.8906C2.66576 29.3917 10.3896 37.0813 19.8906 37.1155C29.3917 37.1155 37.0813 29.3917 37.1155 19.8906C37.1155 10.3896 29.3917 2.69993 19.8906 2.66576C10.3896 2.66576 2.69993 10.3896 2.66576 19.8906Z" fill="#231F20"/>
<path d="M32.2283 34.108L34.108 32.2283L50 48.1203L48.1203 50L32.2283 34.108Z" fill="#231F20"/>
</g>
<defs>
<clipPath id="clip0_0_4">
<rect width="50" height="50" fill="white"/>
</clipPath>
</defs>
</svg>
