<svg width="50" height="50" viewBox="0 0 50 50" fill="none" xmlns="http://www.w3.org/2000/svg">
<path d="M25 50C25 50 24.7468 50 24.6383 49.9269C23.8427 49.6343 5 42.6129 5 9.62699C5 8.96873 5.50633 8.45676 6.15732 8.45676C17.6944 8.45676 24.0235 0.521119 24.0958 0.41141C24.5298 -0.137137 25.4702 -0.137137 25.9042 0.41141C25.9765 0.484549 32.3779 8.45676 43.8427 8.45676C44.4937 8.45676 45 8.96873 45 9.62699C45 42.0644 26.1935 49.5977 25.3978 49.9269C25.2532 49.9634 25.1447 50 25 50ZM7.31465 10.7607C7.71248 38.5537 22.3599 46.3796 25 47.5498C27.604 46.3065 42.3237 38.0051 42.7215 10.7607C33.2098 10.3584 27.2061 5.12891 25.0362 2.89815C22.8662 5.16548 16.8626 10.3584 7.35081 10.7607H7.31465Z" fill="#231F20"/>
<path d="M17.3327 36.1766C17.3327 36.1766 16.9711 36.1035 16.8264 35.9938C16.5371 35.7744 16.3924 35.3721 16.5009 35.0064L19.2495 26.4856L12.0524 21.2196C11.7631 21.0002 11.6184 20.5979 11.7269 20.2322C11.8354 19.8665 12.1609 19.6105 12.5588 19.6105H21.4195L24.1682 11.0898C24.2767 10.7241 24.6022 10.5047 25 10.5047C25.3617 10.5047 25.7233 10.7607 25.8318 11.0898L28.5805 19.6105H37.4412C37.8029 19.6105 38.1646 19.8665 38.2731 20.2322C38.3816 20.5979 38.2731 21.0002 37.9476 21.2196L30.7866 26.4856L33.5353 35.0064C33.6438 35.3721 33.5353 35.7744 33.2098 35.9938C32.9204 36.2132 32.4864 36.2132 32.1971 35.9938L25.0362 30.7277L17.8752 35.9938C17.8752 35.9938 17.5497 36.1766 17.3689 36.1766H17.3327ZM15.2351 21.4025L20.7685 25.4617C21.0579 25.6811 21.2025 26.0834 21.094 26.4491L18.9964 33.0316L24.5298 28.9724C24.8192 28.753 25.2532 28.753 25.5425 28.9724L31.0759 33.0316L28.9783 26.4491C28.8698 26.0834 28.9783 25.6811 29.3038 25.4617L34.8372 21.4025H28.0018C27.6401 21.4025 27.3146 21.1465 27.17 20.7808L25.0362 14.1982L22.9385 20.7808C22.83 21.1465 22.5045 21.4025 22.1067 21.4025H15.2351Z" fill="#231F20"/>
</svg>
