<svg width="50" height="50" viewBox="0 0 50 50" fill="none" xmlns="http://www.w3.org/2000/svg">
<g clip-path="url(#clip0_0_18)">
<path d="M25 8.85383C21.3458 8.85383 18.3601 11.8396 18.3601 15.4938C18.3601 19.1479 21.3458 22.1337 25 22.1337C28.6542 22.1337 31.6622 19.1479 31.6622 15.4938C31.6622 11.8396 28.6765 8.85383 25 8.85383Z" fill="#231F20"/>
<path d="M25 0C11.2077 0 0 11.2077 0 25C0 38.7923 11.2077 50 25 50C38.7923 50 50 38.7923 50 25C50 11.2077 38.7923 0 25 0ZM34.1578 45.8333C33.5784 46.1007 32.9768 46.3235 32.3529 46.5241V33.3191H34.1578V45.8333ZM17.4465 46.4572C16.8449 46.2344 16.221 46.0116 15.6417 45.7442V33.3191H17.4465V46.4572ZM38.3913 43.3601V33.8093C38.3913 28.7513 34.3137 24.6738 29.2558 24.6738H20.6996C15.6417 24.6738 11.5642 28.7736 11.5642 33.8093V43.3601C5.90463 39.2157 2.20588 32.5312 2.20588 25C2.22816 12.4554 12.4554 2.22816 25 2.22816C37.5446 2.22816 47.7718 12.4554 47.7718 25C47.7718 32.5312 44.0731 39.2157 38.4135 43.3601H38.3913Z" fill="#231F20"/>
</g>
<defs>
<clipPath id="clip0_0_18">
<rect width="50" height="50" fill="white"/>
</clipPath>
</defs>
</svg>
