<svg width="50" height="50" viewBox="0 0 50 50" fill="none" xmlns="http://www.w3.org/2000/svg">
<g clip-path="url(#clip0_0_7)">
<g clip-path="url(#clip1_0_7)">
<path d="M22.4866 -3.29882e-07C26.6542 -1.47708e-07 30.0334 3.34448 30.0334 7.46934C30.0334 11.5942 26.6542 14.9387 22.4866 14.9387C18.3189 14.9387 14.9398 11.5942 14.9398 7.46934C14.9398 3.34448 18.3189 -5.12056e-07 22.4866 -3.29882e-07ZM22.4866 2.31327C19.6143 2.31327 17.277 4.62653 17.277 7.46934C17.277 10.3122 19.6143 12.6254 22.4866 12.6254C25.3589 12.6254 27.6961 10.3122 27.6961 7.46934C27.6961 4.62653 25.3589 2.31327 22.4866 2.31327Z" fill="#231F20"/>
<path d="M3 6.32664L15.9253 6.32664L15.9253 8.61204L3 8.61204L3 6.32664Z" fill="#231F20"/>
<path d="M29.3857 6.32664L46 6.32664L46 8.61204L29.3857 8.61204L29.3857 6.32664Z" fill="#231F20"/>
<path d="M12.6588 17.5307C16.8265 17.5307 20.2056 20.8751 20.2056 25C20.2056 29.1249 16.8265 32.4693 12.6588 32.4693C8.49116 32.4693 5.11198 29.1249 5.11198 25C5.11198 20.8751 8.49116 17.5307 12.6588 17.5307ZM12.6588 19.8439C9.78651 19.8439 7.44925 22.1572 7.44925 25C7.44925 27.8428 9.78651 30.1561 12.6588 30.1561C15.5311 30.1561 17.8684 27.8428 17.8684 25C17.8684 22.1572 15.5311 19.8439 12.6588 19.8439Z" fill="#231F20"/>
<path d="M3 23.8573L6.43549 23.8573L6.43549 26.1706L3 26.1706L3 23.8573Z" fill="#231F20"/>
<path d="M19.0792 23.8573L46 23.8573L46 26.1706L19.0792 26.1706L19.0792 23.8573Z" fill="#231F20"/>
<path d="M34.1447 35.0613C38.3124 35.0613 41.6916 38.4058 41.6916 42.5307C41.6916 46.6555 38.3124 50 34.1447 50C29.9771 50 26.5979 46.6555 26.5979 42.5307C26.5979 38.4058 29.9771 35.0613 34.1447 35.0613ZM34.1447 37.3746C31.2724 37.3746 28.9352 39.6878 28.9352 42.5307C28.9352 45.3735 31.2724 47.6867 34.1447 47.6867C37.017 47.6867 39.3543 45.3735 39.3543 42.5307C39.3543 39.6878 37.017 37.3746 34.1447 37.3746Z" fill="#231F20"/>
<path d="M3 41.388L27.8933 41.388L27.8933 43.7012L3 43.7012L3 41.388Z" fill="#231F20"/>
<path d="M40.5652 41.388L46 41.388L46 43.7012L40.5652 43.7012L40.5652 41.388Z" fill="#231F20"/>
</g>
</g>
<defs>
<clipPath id="clip0_0_7">
<rect width="50" height="50" fill="white"/>
</clipPath>
<clipPath id="clip1_0_7">
<rect width="50" height="43" fill="white" transform="translate(46) rotate(90)"/>
</clipPath>
</defs>
</svg>
