<svg width="50" height="50" viewBox="0 0 50 50" fill="none" xmlns="http://www.w3.org/2000/svg">
<g clip-path="url(#clip0_0_30)">
<path d="M16.2377 2.13849H32.7868V26.1711H34.8462V0H14.1783V26.1711H16.2377V2.13849ZM29.3789 19.7556V6.97556H19.6211V19.7556H21.6805V9.11405H27.3195V19.7556H29.3789ZM41 29.8371H28.3982L24.5 17.388L20.6018 29.8371H8L18.1991 37.5255L14.3009 49.9745L24.5 42.2862L34.6991 49.9745L30.8009 37.5255L41 29.8371ZM25.7013 40.555L24.5 39.6385L23.2987 40.555L18.2236 44.3992L20.1605 38.1874L20.6263 36.7108L19.425 35.7943L14.3499 31.9756H22.1218L22.5877 30.499L24.5245 24.2872L26.4614 30.499L26.9272 31.9756H34.6991L29.6241 35.7943L28.4227 36.7108L28.8886 38.1874L30.8254 44.3992L25.7504 40.555H25.7013Z" fill="#231F20"/>
</g>
<defs>
<clipPath id="clip0_0_30">
<rect width="33" height="50" fill="white" transform="translate(8)"/>
</clipPath>
</defs>
</svg>
